<svg width="36" height="36" viewBox="0 0 36 36" fill="currentColor" xmlns="http://www.w3.org/2000/svg">
<path d="M17.8286 36C27.675 36 35.6571 27.9411 35.6571 18C35.6571 8.05888 27.675 0 17.8286 0C7.98212 0 0 8.05888 0 18C0 27.9411 7.98212 36 17.8286 36Z" fill="white"/>
<path d="M19.493 28.6803V18.9603H22.7022L23.1776 15.1203H19.493V12.7203C19.493 11.6403 19.8496 10.9203 21.3948 10.9203H23.4153V7.44031C23.0588 7.44031 21.8702 7.32031 20.5628 7.32031C17.7102 7.32031 15.6896 9.12031 15.6896 12.3603V15.1203H12.4805V18.9603H15.6896V28.6803H19.493Z" fill="currentColor"/>
</svg>
