<svg width="37" height="36" viewBox="0 0 37 36" fill="currentColor" xmlns="http://www.w3.org/2000/svg">
<path d="M18.4858 36C28.3322 36 36.3144 27.9411 36.3144 18C36.3144 8.05887 28.3322 0 18.4858 0C8.63935 0 0.657227 8.05887 0.657227 18C0.657227 27.9411 8.63935 36 18.4858 36Z" fill="white"/>
<path d="M18.4846 7.32031C15.6141 7.32031 15.2485 7.33241 14.1219 7.38687C12.9952 7.44132 12.2282 7.61678 11.557 7.883C10.8618 8.15527 10.2685 8.5183 9.68123 9.11729C9.09393 9.71023 8.73437 10.3092 8.4587 11.0111C8.19501 11.6887 8.01523 12.4692 7.96729 13.6006C7.91935 14.7381 7.90137 15.1012 7.90137 18.0054C7.90137 20.9035 7.91335 21.2665 7.96729 22.4101C8.02122 23.5475 8.19501 24.322 8.4587 24.9996C8.72837 25.7015 9.08794 26.3005 9.68123 26.8934C10.2685 27.4864 10.8618 27.8554 11.557 28.1277C12.2282 28.3939 13.0012 28.5694 14.1219 28.6238C15.2485 28.6783 15.6081 28.6904 18.4846 28.6904C21.3552 28.6904 21.7148 28.6783 22.8474 28.6238C23.974 28.5694 24.7411 28.3939 25.4183 28.1277C26.1135 27.8554 26.7008 27.4864 27.2881 26.8934C27.8754 26.3005 28.2349 25.7015 28.5106 24.9996C28.7683 24.322 28.9481 23.5475 29.002 22.4101C29.0499 21.2726 29.0679 20.9096 29.0679 18.0054C29.0679 15.1072 29.0559 14.7442 29.002 13.6006C28.9481 12.4632 28.7683 11.6887 28.5106 11.0111C28.2409 10.3092 27.8754 9.71023 27.2881 9.11729C26.7008 8.52435 26.1135 8.16132 25.4123 7.883C24.7351 7.61678 23.9681 7.44132 22.8414 7.38687C21.7148 7.33241 21.3552 7.32031 18.4846 7.32031ZM17.5378 9.24435C17.8194 9.24435 18.1311 9.24435 18.4846 9.24435C21.3073 9.24435 21.6428 9.25645 22.7575 9.30485C23.7883 9.35325 24.3456 9.52872 24.7231 9.67393C25.2146 9.86754 25.5681 10.0975 25.9397 10.4726C26.3112 10.8477 26.539 11.2047 26.7307 11.7008C26.8746 12.0759 27.0484 12.6447 27.0963 13.6854C27.1442 14.8107 27.1562 15.1496 27.1562 17.9993C27.1562 20.8491 27.1442 21.1879 27.0963 22.3133C27.0484 23.3539 26.8746 23.9166 26.7307 24.2978C26.539 24.7939 26.3112 25.1509 25.9397 25.526C25.5681 25.9012 25.2206 26.1311 24.7231 26.3247C24.3516 26.4699 23.7883 26.6454 22.7575 26.6938C21.6428 26.7422 21.3073 26.7543 18.4846 26.7543C15.662 26.7543 15.3264 26.7422 14.2118 26.6938C13.181 26.6454 12.6237 26.4699 12.2461 26.3247C11.7547 26.1311 11.4012 25.9012 11.0296 25.526C10.6581 25.1509 10.4303 24.7939 10.2386 24.2978C10.0947 23.9227 9.92094 23.3539 9.873 22.3133C9.82506 21.1879 9.81307 20.8491 9.81307 17.9993C9.81307 15.1496 9.82506 14.8107 9.873 13.6854C9.92094 12.6447 10.0947 12.082 10.2386 11.7008C10.4303 11.2047 10.6581 10.8477 11.0296 10.4726C11.4012 10.0975 11.7547 9.86754 12.2461 9.67393C12.6177 9.52872 13.181 9.35325 14.2118 9.30485C15.1886 9.25645 15.5662 9.24435 17.5378 9.24435ZM24.1299 11.0171C23.4287 11.0171 22.8594 11.5919 22.8594 12.2998C22.8594 13.0077 23.4287 13.5825 24.1299 13.5825C24.831 13.5825 25.4003 13.0077 25.4003 12.2998C25.4003 11.5919 24.831 11.0171 24.1299 11.0171ZM18.4846 12.5176C15.4823 12.5176 13.0552 14.9741 13.0552 17.9993C13.0552 21.0306 15.4882 23.481 18.4846 23.481C21.487 23.481 23.9141 21.0245 23.9141 17.9993C23.9141 14.968 21.487 12.5176 18.4846 12.5176ZM18.4846 14.4417C20.4323 14.4417 22.0084 16.0329 22.0084 17.9993C22.0084 19.9657 20.4323 21.5569 18.4846 21.5569C16.537 21.5569 14.9609 19.9657 14.9609 17.9993C14.9609 16.0329 16.537 14.4417 18.4846 14.4417Z" fill="currentColor"/>
</svg>
