<!DOCTYPE svg PUBLIC "-//W3C//DTD SVG 1.1//EN" "http://www.w3.org/Graphics/SVG/1.1/DTD/svg11.dtd">
<!-- Uploaded to: SVG Repo, www.svgrepo.com, Transformed by: SVG Repo Mixer Tools -->
<svg width="64px" height="64px" viewBox="-819.2 -819.2 2662.40 2662.40" xmlns="http://www.w3.org/2000/svg" fill="#000000">
<g id="SVGRepo_bgCarrier" stroke-width="0"/>
<g id="SVGRepo_tracerCarrier" stroke-linecap="round" stroke-linejoin="round"/>
<g id="SVGRepo_iconCarrier">
<path fill="#000000" d="M224 448a32 32 0 0 0-32 32v384a32 32 0 0 0 32 32h576a32 32 0 0 0 32-32V480a32 32 0 0 0-32-32H224zm0-64h576a96 96 0 0 1 96 96v384a96 96 0 0 1-96 96H224a96 96 0 0 1-96-96V480a96 96 0 0 1 96-96z"/>
<path fill="#000000" d="M512 544a32 32 0 0 1 32 32v192a32 32 0 1 1-64 0V576a32 32 0 0 1 32-32zm192-160v-64a192 192 0 1 0-384 0v64h384zM512 64a256 256 0 0 1 256 256v128H256V320A256 256 0 0 1 512 64z"/>
</g>
</svg>