<?xml version="1.0" standalone="no"?>
<!DOCTYPE svg PUBLIC "-//W3C//DTD SVG 20010904//EN"
 "http://www.w3.org/TR/2001/REC-SVG-20010904/DTD/svg10.dtd">
<svg version="1.0" xmlns="http://www.w3.org/2000/svg"
 width="1170.000000pt" height="682.000000pt" viewBox="0 0 1170.000000 682.000000"
 preserveAspectRatio="xMidYMid meet">

<g transform="translate(0.000000,682.000000) scale(0.100000,-0.100000)"
fill="#000000" stroke="none">
<path d="M3017 4840 c-302 -77 -532 -346 -548 -641 l-4 -64 86 -3 87 -3 6 54
c31 248 215 447 450 488 226 39 455 -69 568 -268 l30 -53 95 0 c107 0 103 -6
60 90 -80 179 -250 326 -452 390 -102 32 -273 37 -378 10z"/>
<path d="M4303 4393 c-10 -4 -13 -93 -13 -399 l0 -394 203 2 202 3 0 65 0 65
-125 5 -125 5 -3 321 -2 322 -23 6 c-26 7 -97 7 -114 -1z"/>
<path d="M4948 4391 c-48 -16 -88 -52 -113 -102 -25 -48 -25 -52 -25 -291 0
-215 3 -248 19 -284 41 -90 149 -139 258 -116 74 15 118 45 151 100 l27 47 0
250 c0 248 0 250 -25 295 -14 24 -44 57 -67 74 -37 25 -53 30 -120 32 -43 2
-90 0 -105 -5z m116 -132 c43 -20 47 -50 44 -276 -3 -191 -5 -213 -22 -232
-24 -27 -70 -27 -96 -1 -19 19 -20 33 -20 249 l0 230 26 20 c31 24 35 25 68
10z"/>
<path d="M5512 4375 c-39 -20 -59 -39 -80 -73 -27 -47 -27 -47 -30 -276 -4
-249 3 -299 44 -354 52 -68 159 -97 255 -69 88 26 149 106 149 196 l0 39 -70
4 c-39 2 -75 2 -80 0 -6 -2 -10 -21 -10 -41 0 -62 -57 -92 -106 -57 -18 13
-19 30 -22 243 -3 209 -1 231 15 250 44 51 109 25 115 -45 3 -34 6 -37 38 -40
19 -2 54 -1 77 3 43 6 43 6 43 49 0 57 -36 124 -88 160 -35 25 -53 30 -119 33
-69 4 -84 2 -131 -22z"/>
<path d="M6013 4393 c-10 -4 -13 -93 -13 -399 l0 -395 73 3 72 3 5 125 c5 121
19 175 44 167 4 -1 34 -68 66 -147 l58 -145 81 -3 c64 -2 81 0 81 11 0 8 -38
105 -85 215 -47 111 -85 208 -85 217 0 9 37 88 83 176 69 134 80 161 67 169
-17 11 -109 13 -135 4 -9 -4 -47 -69 -86 -145 -38 -77 -74 -139 -79 -139 -6 0
-10 54 -10 139 0 117 -2 140 -16 145 -18 7 -103 7 -121 -1z"/>
<path d="M6622 4392 c-9 -7 -12 -93 -10 -398 l3 -389 203 -3 202 -2 0 70 0 70
-125 0 -125 0 0 95 0 95 75 0 75 0 0 64 c0 74 -2 76 -91 76 l-60 0 3 93 3 92
123 3 122 3 0 63 c0 49 -4 65 -16 70 -23 9 -367 7 -382 -2z"/>
<path d="M7172 4392 c-9 -6 -12 -93 -10 -398 l3 -389 75 0 75 0 3 163 2 162
24 0 c14 0 26 -7 29 -17 3 -10 22 -79 42 -153 21 -74 42 -141 47 -147 12 -15
144 -18 152 -4 3 4 -18 83 -46 175 l-51 167 30 32 c38 40 50 62 63 122 23 103
-27 222 -112 266 -37 19 -63 23 -178 26 -74 2 -141 0 -148 -5z m255 -154 c22
-22 33 -84 22 -123 -12 -43 -43 -65 -91 -65 l-38 0 0 106 0 107 46 -6 c25 -2
53 -11 61 -19z"/>
<path d="M7869 4391 c-45 -15 -79 -43 -103 -85 -31 -54 -39 -102 -25 -164 13
-65 54 -121 126 -175 114 -86 153 -127 153 -163 0 -62 -66 -97 -103 -56 -10
10 -17 32 -17 49 0 44 -19 54 -92 51 l-63 -3 0 -61 c0 -49 5 -68 28 -102 94
-143 351 -108 396 55 34 122 -1 191 -159 313 -95 73 -110 89 -117 133 -4 29
-1 40 21 62 43 43 94 17 103 -54 l6 -41 73 0 74 0 0 53 c0 66 -30 121 -88 161
-37 26 -53 31 -115 33 -40 1 -84 -1 -98 -6z"/>
<path d="M3055 3997 c-3 -6 -4 -189 -3 -406 l3 -394 149 -51 149 -50 146 49
c80 27 152 53 159 58 9 7 12 83 12 318 l0 309 55 0 55 0 0 -364 c0 -206 -4
-367 -9 -370 -5 -3 -100 -37 -211 -75 l-202 -70 -161 55 c-89 30 -184 63 -212
72 l-50 17 -3 453 -2 452 -240 0 -240 0 0 -619 c0 -580 1 -619 18 -626 194
-75 878 -325 889 -325 9 0 337 105 526 167 l77 26 0 94 c0 51 -3 93 -6 93 -3
0 -138 -43 -300 -96 l-294 -96 -363 134 -362 133 0 470 0 470 55 0 55 0 5
-429 5 -429 105 -36 c58 -21 193 -67 300 -104 l195 -68 265 92 c146 50 282 96
303 101 l37 10 0 524 0 524 -235 0 -235 0 0 -333 0 -334 -24 -11 c-68 -31
-102 -33 -163 -11 -32 12 -61 27 -65 33 -4 6 -8 156 -8 334 l0 322 -85 0 c-59
0 -87 -4 -90 -13z"/>
<path d="M6205 3359 c-56 -13 -107 -52 -136 -102 -24 -41 -24 -45 -24 -297 0
-252 0 -256 24 -297 47 -82 144 -121 254 -101 79 15 133 59 162 134 14 34 16
79 13 280 -3 232 -4 240 -27 281 -30 52 -80 88 -141 102 -53 12 -71 12 -125 0z
m110 -154 l25 -24 0 -221 0 -221 -25 -24 c-13 -14 -33 -25 -45 -25 -11 0 -32
11 -45 25 l-25 24 0 221 0 221 25 24 c31 32 59 32 90 0z"/>
<path d="M6795 3359 c-59 -14 -111 -55 -137 -108 -22 -43 -23 -60 -26 -269 -4
-266 4 -308 68 -366 52 -47 80 -57 155 -58 129 -1 218 74 227 192 3 42 2 45
-27 51 -16 4 -51 7 -76 8 l-46 1 -6 -42 c-10 -73 -66 -100 -112 -53 l-25 24 0
221 0 221 25 24 c46 47 102 20 112 -52 l5 -42 72 6 c39 3 75 9 79 13 5 4 4 34
-3 65 -14 67 -70 137 -123 154 -52 16 -119 20 -162 10z"/>
<path d="M4287 3354 c-4 -4 -7 -141 -7 -304 0 -339 5 -372 67 -432 21 -20 51
-42 68 -48 40 -15 133 -16 177 -1 42 14 114 87 125 128 4 15 8 170 8 343 l0
315 -75 0 -75 0 -5 -311 c-5 -289 -6 -313 -24 -333 -11 -12 -29 -21 -41 -21
-12 0 -30 9 -41 21 -18 20 -19 44 -24 333 l-5 311 -70 3 c-39 1 -74 0 -78 -4z"/>
<path d="M4885 3347 c-3 -6 -4 -185 -3 -397 l3 -385 66 -3 c46 -2 69 1 77 11
8 9 13 84 14 218 l3 204 58 -180 c70 -216 78 -238 91 -247 15 -10 138 -10 154
0 9 7 12 93 10 398 l-3 389 -75 0 -75 0 -5 -220 -5 -220 -69 210 c-38 116 -73
216 -79 223 -13 17 -156 17 -162 -1z"/>
<path d="M5525 3347 c-3 -6 -4 -185 -3 -397 l3 -385 200 0 200 0 3 68 3 67
-126 0 -125 0 0 324 c0 286 -2 325 -16 330 -30 11 -134 7 -139 -7z"/>
<path d="M7233 3354 c-20 -9 -19 -767 1 -783 9 -7 40 -11 78 -9 l63 3 5 125
c5 122 18 176 42 168 6 -2 35 -64 65 -138 29 -73 58 -139 64 -147 14 -16 144
-18 154 -3 7 11 -12 61 -106 284 -33 76 -59 145 -59 153 0 8 37 86 81 174 54
105 78 164 72 170 -6 6 -41 9 -79 7 l-69 -3 -75 -142 c-41 -79 -78 -143 -82
-143 -4 0 -9 64 -10 143 l-3 142 -65 2 c-36 1 -71 -1 -77 -3z"/>
<path d="M7847 3353 c-4 -3 -7 -181 -7 -394 0 -344 2 -388 16 -393 31 -12 379
-7 392 6 13 13 16 96 4 115 -5 8 -47 13 -127 15 l-120 3 -3 92 -3 92 73 3 73
3 3 68 3 67 -76 0 -75 0 0 95 0 95 124 0 c140 0 136 -2 136 80 0 34 -4 50 -16
54 -21 8 -389 8 -397 -1z"/>
<path d="M8398 3354 c-5 -4 -8 -179 -8 -389 0 -327 2 -384 15 -395 11 -9 51
-11 143 -8 114 3 135 7 178 29 54 28 88 71 105 132 6 24 9 127 7 267 l-3 228
-30 43 c-18 26 -50 53 -79 68 -42 22 -63 25 -184 29 -76 2 -140 1 -144 -4z
m257 -159 c25 -24 25 -25 25 -225 0 -231 -6 -255 -65 -266 -67 -12 -65 -21
-65 254 0 137 3 252 7 255 16 17 75 6 98 -18z"/>
</g>
</svg>
