<svg width="36" height="35" viewBox="0 0 36 35" fill="currentColor" xmlns="http://www.w3.org/2000/svg">
<path d="M18.143 34.9714C27.9895 34.9714 35.9716 27.1428 35.9716 17.4857C35.9716 7.82862 27.9895 0 18.143 0C8.29658 0 0.314453 7.82862 0.314453 17.4857C0.314453 27.1428 8.29658 34.9714 18.143 34.9714Z" fill="white"/>
<path d="M28.8394 12.2862C28.1397 12.5908 27.3878 12.7959 26.5986 12.8884C27.4044 12.4152 28.0233 11.6654 28.3141 10.7719C27.5605 11.2101 26.7253 11.5287 25.8363 11.7004C25.1255 10.9568 24.1105 10.4922 22.9885 10.4922C20.4695 10.4922 18.6185 12.7967 19.1874 15.1891C15.9458 15.0298 13.071 13.5069 11.1463 11.1922C10.1242 12.9117 10.6162 15.1611 12.3531 16.3001C11.7145 16.2799 11.1123 16.1082 10.5869 15.8215C10.5441 17.5938 11.8397 19.2519 13.716 19.621C13.1669 19.767 12.5655 19.8012 11.9538 19.6862C12.4498 21.206 13.8903 22.3117 15.5987 22.3427C13.9585 23.6038 11.892 24.1671 9.82227 23.9278C11.5489 25.0132 13.6003 25.6465 15.8032 25.6465C23.0471 25.6465 27.1398 19.6474 26.8925 14.2668C27.6548 13.7268 28.3164 13.0531 28.8394 12.2862Z" fill="#244949"/>
</svg>
